
 #######                         #######                      
 #       ###### ###### #         #       #####  ###### ###### 
 #       #      #      #         #       #    # #      #      
 #####   #####  #####  #         #####   #    # #####  #####  
 #       #      #      #         #       #####  #      #      
 #       #      #      #         #       #   #  #      #      
 #       ###### ###### ######    #       #    # ###### ###### 


Genre:Crime | Drama | Mystery
Language:English
IMDb: 
http://www.imdb.com/title/tt0910905/
Source:1080p BluRay
Subtitles:Romana

Format : MPEG-4
Format profile : Base Media
Codec ID : isom
File size : 2.29 GiB
Duration : 1h 42mn
Overall bit rate : 3 206 Kbps

Video
Format profile : High@L4.1
Format settings, CABAC : Yes
Format settings, ReFrames : 3 frames
Codec ID : avc1
Codec ID/Info : Advanced Video Coding
Duration : 1h 42mn
Bit rate mode : Variable
Bit rate : 2 893 Kbps
Maximum bit rate : 16.6 Mbps
Width : 1 280 pixels
Height : 544 pixels
Display aspect ratio : 2.35:1
Frame rate mode : Constant
Frame rate : 23.976 fps
Color space : YUV
Chroma subsampling : 4:2:0
Bit depth : 8 bits
Scan type : Progressive
Bits/(Pixel*Frame) : 0.173
Stream size : 1.97 GiB (86%)
Writing library : x264

Audio
ID : 2
Format : AAC
Format/Info : Advanced Audio Codec
Format version : Version 4
Format profile : LC
Format settings, SBR : No
Codec ID : 40
Duration : 1h 42mn
Bit rate mode : Variable
Bit rate : 444 Kbps
Maximum bit rate : 519 Kbps
Channel(s) : 6 channels
Channel positions : Front: L C R, Side: L R, LFE
Sampling rate : 48.0 KHz
Stream size : 325 MiB (14%)


Plot:
A detective in post Katrina New Orleans area has a series of surreal encounters with a troop of friendly Confederate soldiers while investigating serial killings of local prostitutes, a 1965 lynching and corrupt local businessmen.


Greets:

INK,CRYS,IMAGINE,LKRG,FXG,3Li,FLAWL3SS,TA,iLLUSiON,ViSiON,LU,TheFalcon007,MYSTiC,PrisM,Noir,WBZ,LAP,Rx,Kingdom,SAFCuk009+Fabreezy,HDLiTE,TWiZTED,ExtraTorrentRG.ELEKTRI4KA,MAGNAT,CM8
And to all the other p2p grps past and present






================================== 
http://thepiratebay.org/user/hiest
==================================






Screen Shots:
 
http://www.postimg.com/30000/29417.jpg
 
http://www.postimg.com/30000/29418.jpg
 
http://www.postimg.com/30000/29419.jpg
 
http://www.postimg.com/30000/29420.jpg
 
http://www.postimg.com/30000/29421.jpg
 
http://www.postimg.com/30000/29422.jpg


 #######                         #######                      
 #       ###### ###### #         #       #####  ###### ###### 
 #       #      #      #         #       #    # #      #      
 #####   #####  #####  #         #####   #    # #####  #####  
 #       #      #      #         #       #####  #      #      
 #       #      #      #         #       #   #  #      #      
 #       ###### ###### ######    #       #    # ###### ###### 
